<svg width="16" height="16" viewBox="0 0 16 16" fill="none" xmlns="http://www.w3.org/2000/svg">
<path d="M8 0C12.4183 0 16 3.58172 16 8C16 12.4183 12.4183 16 8 16C3.58172 16 0 12.4183 0 8C0 3.58172 3.58172 0 8 0ZM4.45312 3.88008C4.31779 3.8801 4.20508 3.92539 4.11484 4.01562C4.02463 4.10587 3.9793 4.21855 3.9793 4.35391C3.9796 5.29437 4.18477 6.22332 4.59453 7.14062C5.00429 8.0579 5.58538 8.89289 6.3375 9.64531C7.08958 10.3977 7.92427 10.9789 8.8418 11.3887C9.75937 11.7984 10.6884 12.0031 11.6285 12.0031C11.7639 12.0031 11.8769 11.9578 11.9672 11.8676C12.0574 11.7773 12.1023 11.6646 12.1023 11.5293V9.70156C12.1023 9.6041 12.0685 9.51584 12.0008 9.43672C11.9331 9.35763 11.8467 9.30313 11.7414 9.27305L10.1844 8.95703C10.0794 8.94232 9.97244 8.95187 9.86328 8.98555C9.75407 9.01924 9.66535 9.06981 9.59766 9.1375L8.5375 10.198C8.25171 10.0329 7.98071 9.85063 7.725 9.65117C7.46927 9.4517 7.22496 9.23512 6.9918 9.00195C6.7433 8.76098 6.51567 8.51089 6.30898 8.25156C6.1023 7.99223 5.92347 7.72359 5.77305 7.44531L6.86758 6.33945C6.92773 6.27929 6.96924 6.20772 6.9918 6.125C7.01431 6.04234 7.01813 5.94088 7.00313 5.8207L6.70977 4.24102C6.69472 4.14355 6.64562 4.05909 6.56289 3.9875C6.48016 3.91591 6.38615 3.88008 6.28086 3.88008H4.45312Z" fill="black"/>
</svg>
