<svg width="16" height="16" viewBox="0 0 16 16" fill="none" xmlns="http://www.w3.org/2000/svg">
<path d="M8 0C12.4183 0 16 3.58172 16 8C16 12.4183 12.4183 16 8 16C3.58172 16 0 12.4183 0 8C0 3.58172 3.58172 0 8 0ZM3.96289 4.18477C3.68577 4.18514 3.44816 4.28161 3.25039 4.47422C3.0527 4.66682 2.95393 4.89848 2.95391 5.16914V11.077C2.95425 11.348 3.05295 11.58 3.25039 11.7727C3.44782 11.9653 3.68543 12.0617 3.96289 12.0617H12.0371C12.3149 12.062 12.5526 11.9656 12.75 11.7727C12.9475 11.5797 13.0461 11.3477 13.0461 11.077V5.16914C13.0464 4.89878 12.9477 4.66716 12.75 4.47422C12.5522 4.28128 12.3146 4.18481 12.0371 4.18477H3.96289ZM11.3809 5.56289C11.5322 5.47265 11.6797 5.46874 11.8227 5.55078C11.9655 5.63282 12.0371 5.75592 12.0371 5.91992C12.0371 5.9941 12.02 6.06206 11.9863 6.12344C11.9527 6.18473 11.9024 6.23596 11.8352 6.27695L8.26484 8.45547C8.22318 8.47971 8.17917 8.49809 8.13281 8.51055C8.08639 8.52302 8.04205 8.5293 8 8.5293C7.95833 8.52962 7.91434 8.52338 7.86797 8.51094C7.82158 8.49848 7.77718 8.48006 7.73516 8.45547L4.16484 6.27695C4.09759 6.24446 4.0473 6.19723 4.01367 6.13555C3.98003 6.07385 3.96289 6.00197 3.96289 5.91992C3.96291 5.76442 4.03445 5.64333 4.17734 5.55703C4.32031 5.47072 4.46777 5.47265 4.61914 5.56289L8 7.63086L11.3809 5.56289Z" fill="black"/>
</svg>
