<svg width="25" height="25" viewBox="0 0 25 25" fill="none" xmlns="http://www.w3.org/2000/svg">
<path d="M0 0V25H25V0H0ZM3.88492 10.3303H10.2448C10.8954 10.3349 11.5793 10.5851 12.1033 11.0673C12.5857 11.5435 12.869 12.2266 12.883 12.9579C12.8806 13.5194 12.7736 14.1665 12.4008 14.6821C12.1403 15.0328 11.7324 15.298 11.2824 15.4496V15.5091C11.7563 15.6277 12.2235 15.8809 12.5565 16.2995C12.9526 16.8117 13.088 17.5026 13.0997 18.1825C13.0949 18.9038 12.8453 19.6762 12.2864 20.2485C11.7896 20.7365 11.0764 21.0159 10.3256 21.0313H3.88479V10.3304L3.88492 10.3303ZM15.0299 10.3517H19.7601V12.1064H15.0299V10.3517ZM17.2943 12.6313C17.9543 12.6313 18.5398 12.717 19.0506 12.8892C19.5659 13.0563 19.9996 13.3176 20.3522 13.672C20.7047 14.0214 20.9709 14.4669 21.1517 15.0086C21.3902 15.7178 21.4354 16.6258 21.4309 17.4546H15.9316C15.9316 18.0217 16.0443 18.4621 16.2703 18.776C16.5009 19.0849 16.8782 19.2384 17.4025 19.2384C17.9007 19.236 18.4843 19.0763 18.6766 18.5166C18.7264 18.3698 18.7514 18.2137 18.7514 18.0466H21.4309C21.4253 18.8981 21.1511 19.7438 20.433 20.3706C19.6395 21.0159 18.5306 21.2 17.4636 21.2205C16.8036 21.2205 16.2071 21.1373 15.6737 20.9702C15.1449 20.7981 14.6955 20.5343 14.3248 20.1798C13.9542 19.8254 13.6692 19.3799 13.4703 18.8432C13.2714 18.3014 13.1713 17.6613 13.1713 16.9221C13.1713 16.2031 13.2683 15.5759 13.4627 15.0391C13.6571 14.5024 13.9326 14.0569 14.2897 13.7025C14.6514 13.343 15.085 13.074 15.5913 12.8968C16.1021 12.7196 16.6704 12.6313 17.2942 12.6313L17.2943 12.6313ZM6.95035 12.6771V14.499H9.05915C9.24923 14.4975 9.4301 14.4105 9.56727 14.2564C9.70048 14.0942 9.76577 13.8805 9.77021 13.6567V13.5041C9.76883 13.3022 9.69121 13.0935 9.55965 12.9197C9.44008 12.7785 9.26073 12.6873 9.05917 12.6771H6.95035ZM17.4026 14.6058C16.937 14.6058 16.5894 14.73 16.3589 14.9781C16.1328 15.2262 15.9951 15.5629 15.9453 15.9882H18.6431C18.6431 15.5578 18.535 15.2211 18.3181 14.9781C18.1011 14.73 17.7958 14.6058 17.4026 14.6058ZM6.95035 16.71V18.5395H9.2819C9.46983 18.538 9.64977 18.4518 9.79002 18.3045C9.92258 18.1431 9.99112 17.9284 9.99448 17.7048V17.5446C9.99327 17.3409 9.92721 17.1283 9.79002 16.9526C9.6696 16.8106 9.48317 16.7215 9.2819 16.71H6.95035Z" fill="white"/>
</svg>
