<svg width="192" height="51" viewBox="0 0 192 51" fill="none" xmlns="http://www.w3.org/2000/svg">
<path d="M28.4164 7.2061V51L19.3008 43.7939V0L28.4164 7.2061Z" fill="#5043FA"/>
<path d="M19.3009 0V14.7931L3.81738 25.7717L0 21.075L19.3009 0Z" fill="url(#paint0_linear_327_331)"/>
<path d="M8.49604 22.4529L3.81738 25.7717L0 21.075L8.49604 11.7992V22.4529Z" fill="url(#paint1_linear_327_331)"/>
<path d="M16.9921 41.9763L0 28.4771V28.4743V21.075L3.81738 25.7717L16.9921 41.9763Z" fill="#5043FA"/>
<path d="M41.3912 38.3354L28.4165 51V39.0636L38.3823 33.888L41.3912 38.3354Z" fill="url(#paint2_linear_327_331)"/>
<path d="M33.6284 36.3582L38.3821 33.888L41.391 38.3354L34.3008 45.2587L33.6284 36.3582Z" fill="url(#paint3_linear_327_331)"/>
<path d="M41.3909 32.3252V38.3354L38.382 33.888L31.2251 23.3127L41.3909 32.3252Z" fill="#5043FA"/>
<path d="M74.2387 22.5063C74.2109 21.6157 74.1164 20.8203 73.958 20.1117C73.7997 19.4059 73.5441 18.7898 73.194 18.2717C72.8495 17.7479 72.3522 17.3166 71.7076 16.9694C71.0658 16.6221 70.249 16.3616 69.2655 16.1936C68.2792 16.0255 67.0623 15.9387 65.6231 15.9387H51.4844V34.9972H65.6231C67.0623 34.9972 68.2792 34.9132 69.2655 34.7423C70.249 34.5715 71.0631 34.3138 71.7076 33.9666C72.3494 33.6193 72.8495 33.1852 73.194 32.6615C73.5441 32.1433 73.7997 31.5272 73.958 30.8214C74.1164 30.1101 74.2109 29.3147 74.2387 28.4269C74.272 27.5363 74.2859 26.5504 74.2859 25.4666C74.2859 24.3827 74.272 23.3969 74.2387 22.5063ZM71.8965 28.3877C71.8743 29.2026 71.8021 29.8888 71.6882 30.4489C71.5659 31.0035 71.3853 31.4572 71.1297 31.7961C70.8769 32.1349 70.5157 32.3926 70.049 32.5718C69.5822 32.7455 68.9877 32.8631 68.2709 32.9247C67.5485 32.9807 66.6678 33.0087 65.6287 33.0087H53.8487V17.9216H65.6287C66.6761 17.9216 67.5568 17.9496 68.2736 18.0056C68.9904 18.0672 69.5822 18.1849 70.049 18.3641C70.5157 18.5377 70.8769 18.7982 71.1297 19.1371C71.3853 19.476 71.5687 19.9269 71.6882 20.4842C71.8049 21.0443 71.8743 21.7305 71.8965 22.5455C71.916 23.3605 71.9243 24.3351 71.9243 25.4666C71.9243 26.598 71.916 27.5755 71.8965 28.3905V28.3877Z" fill="#0D0D0D"/>
<path d="M78.2119 15.9375V34.996H80.5735V15.9375H78.2119Z" fill="#0D0D0D"/>
<path d="M99.4602 15.9375C100.635 15.9375 101.622 15.9907 102.427 16.0915C103.233 16.1952 103.9 16.3492 104.425 16.5564C104.947 16.7637 105.353 17.0186 105.631 17.3238C105.914 17.6291 106.12 17.9932 106.25 18.4049C106.386 18.8194 106.459 19.2815 106.478 19.794C106.5 20.3065 106.512 20.8723 106.512 21.494C106.512 22.1158 106.498 22.7375 106.47 23.2808C106.437 23.827 106.345 24.3199 106.186 24.7624C106.028 25.2049 105.772 25.5942 105.422 25.9303C105.078 26.2635 104.581 26.5408 103.936 26.7676C103.294 26.9889 102.483 27.1569 101.494 27.2746C100.508 27.3922 99.2907 27.4482 97.8516 27.4482H87.6441V34.9904H85.2881V15.9375H99.4574H99.4602ZM87.6469 25.4681H97.8543C98.9018 25.4681 99.7825 25.4485 100.499 25.4121C101.216 25.3757 101.808 25.3085 102.275 25.2105C102.741 25.1125 103.103 24.9696 103.355 24.7876C103.611 24.6027 103.797 24.3647 103.914 24.0678C104.036 23.7709 104.106 23.4125 104.122 22.9952C104.139 22.5779 104.156 22.0765 104.156 21.4996C104.156 20.9619 104.142 20.5026 104.122 20.1105C104.103 19.7184 104.033 19.3963 103.914 19.1303C103.797 18.8614 103.611 18.6541 103.355 18.4945C103.103 18.3405 102.741 18.2172 102.275 18.1276C101.808 18.0436 101.216 17.9876 100.499 17.9624C99.7825 17.94 98.9018 17.926 97.8543 17.926H87.6469V25.4681Z" fill="#0D0D0D"/>
<path d="M130.944 25.1181C131.205 24.698 131.391 24.1854 131.502 23.5889C131.611 22.9868 131.666 22.2894 131.666 21.494C131.666 20.8723 131.652 20.3065 131.624 19.794C131.597 19.2815 131.502 18.8194 131.341 18.4049C131.183 17.9904 130.93 17.6291 130.583 17.3238C130.235 17.0186 129.741 16.7637 129.096 16.5564C128.454 16.3492 127.638 16.1952 126.651 16.0915C125.665 15.9879 124.454 15.9375 123.014 15.9375H109.659V34.996H112.021V27.4538H122.617C123.665 27.4538 124.551 27.4734 125.262 27.5098C125.979 27.5462 126.571 27.6134 127.037 27.7115C127.507 27.8095 127.865 27.9523 128.118 28.1344C128.374 28.3192 128.56 28.5573 128.677 28.8541C128.799 29.151 128.868 29.5095 128.885 29.9268C128.907 30.3441 128.918 30.8454 128.918 31.4223V34.9932H131.274V31.4223C131.274 30.725 131.241 30.106 131.172 29.5599C131.102 29.0138 130.958 28.5433 130.746 28.1484C130.533 27.7479 130.23 27.4286 129.838 27.1793C129.441 26.9301 128.921 26.7564 128.263 26.6584C128.918 26.5604 129.466 26.3868 129.899 26.1319C130.333 25.8826 130.683 25.5438 130.944 25.1209V25.1181ZM129.28 22.9924C129.257 23.4125 129.185 23.7681 129.071 24.065C128.949 24.3619 128.763 24.5999 128.513 24.7848C128.257 24.9696 127.899 25.1097 127.432 25.2077C126.965 25.3057 126.371 25.3729 125.657 25.4093C124.94 25.4457 124.059 25.4653 123.012 25.4653H112.018V17.9232H123.012C124.059 17.9232 124.94 17.9372 125.657 17.9596C126.371 17.982 126.965 18.0408 127.432 18.1248C127.899 18.2144 128.257 18.3377 128.513 18.4917C128.766 18.6513 128.952 18.8586 129.071 19.1275C129.188 19.3907 129.257 19.7156 129.28 20.1077C129.299 20.497 129.307 20.9591 129.307 21.4968C129.307 22.0765 129.299 22.5751 129.28 22.9924Z" fill="#0D0D0D"/>
<path d="M158.901 34.996H156.429L153.978 30.6298L152.861 28.6441L146.607 17.5143L140.334 28.6441L139.217 30.6298L136.756 34.996H134.027L144.788 15.9375H148.174L158.901 34.996Z" fill="#0D0D0D"/>
<path d="M188.11 15.9375L177.108 32.6154L166.12 15.9375H162.327V34.996H164.683V17.5283L176.058 34.996H178.439L189.641 17.7859V34.996H191.997V15.9375H188.107H188.11Z" fill="#0D0D0D"/>
<defs>
<linearGradient id="paint0_linear_327_331" x1="-3.82016" y1="12.8858" x2="40.3659" y2="12.8858" gradientUnits="userSpaceOnUse">
<stop stop-color="#5043FA"/>
<stop offset="0.23" stop-color="#5043FA"/>
<stop offset="0.27" stop-color="#5043FA"/>
<stop offset="0.36" stop-color="#4F42F7"/>
<stop offset="0.41" stop-color="#4C40EF"/>
<stop offset="0.46" stop-color="#483CE1"/>
<stop offset="0.49" stop-color="#4237CE"/>
<stop offset="0.53" stop-color="#3930B5"/>
<stop offset="0.56" stop-color="#2F2896"/>
<stop offset="0.58" stop-color="#241F72"/>
<stop offset="0.59" stop-color="#231E6E"/>
</linearGradient>
<linearGradient id="paint1_linear_327_331" x1="0.644566" y1="24.3489" x2="12.986" y2="13.1776" gradientUnits="userSpaceOnUse">
<stop stop-color="#231E6E"/>
<stop offset="0.02" stop-color="#2A2383"/>
<stop offset="0.06" stop-color="#342CA3"/>
<stop offset="0.11" stop-color="#3C33BE"/>
<stop offset="0.16" stop-color="#4339D4"/>
<stop offset="0.21" stop-color="#493DE5"/>
<stop offset="0.29" stop-color="#4D40F1"/>
<stop offset="0.39" stop-color="#4F42F8"/>
<stop offset="0.67" stop-color="#5043FA"/>
</linearGradient>
<linearGradient id="paint2_linear_327_331" x1="25.2826" y1="42.444" x2="48.7009" y2="42.444" gradientUnits="userSpaceOnUse">
<stop stop-color="#231E6E"/>
<stop offset="0.03" stop-color="#2B2588"/>
<stop offset="0.09" stop-color="#362EAB"/>
<stop offset="0.14" stop-color="#3F35C8"/>
<stop offset="0.2" stop-color="#473BDE"/>
<stop offset="0.26" stop-color="#4C3FED"/>
<stop offset="0.34" stop-color="#4F42F7"/>
<stop offset="0.44" stop-color="#5043FA"/>
</linearGradient>
<linearGradient id="paint3_linear_327_331" x1="41.4716" y1="35.8764" x2="29.2754" y2="43.7577" gradientUnits="userSpaceOnUse">
<stop stop-color="#231E6E"/>
<stop offset="0.02" stop-color="#2A2383"/>
<stop offset="0.05" stop-color="#342CA3"/>
<stop offset="0.08" stop-color="#3C33BE"/>
<stop offset="0.12" stop-color="#4339D4"/>
<stop offset="0.17" stop-color="#493DE5"/>
<stop offset="0.22" stop-color="#4D40F1"/>
<stop offset="0.3" stop-color="#4F42F8"/>
<stop offset="0.52" stop-color="#5043FA"/>
</linearGradient>
</defs>
</svg>
