<svg width="80" height="80" viewBox="0 0 80 80" fill="none" xmlns="http://www.w3.org/2000/svg">
<rect width="80" height="80" rx="15" fill="white"/>
<path d="M72.897 43.91C72.797 43.91 72.697 43.9766 72.6303 44.1433C71.9603 46.08 71.0237 47.25 70.257 47.25C69.8237 47.25 69.657 46.75 69.657 46.0166C69.657 44.11 70.7903 40.0666 71.357 38.1966C71.4237 37.9633 71.457 37.7633 71.457 37.5966C71.457 37.06 71.157 36.79 70.4237 36.79C69.657 36.79 68.787 37.09 67.9837 38.53C67.717 37.26 66.8503 36.7233 65.6437 36.7233C64.277 36.7233 62.937 37.6266 61.837 39.0633C60.7337 40.5 59.4303 40.97 58.4603 40.7333C59.1603 39.0333 59.427 37.7266 59.427 36.79C59.427 35.29 58.6937 34.3866 57.4937 34.3866C55.687 34.3866 54.6503 36.1233 54.6503 37.9266C54.6503 39.33 55.2837 40.7666 56.6903 41.47C55.5203 44.11 53.817 46.5166 53.147 46.5166C52.3137 46.5166 52.047 42.4066 52.1137 39.4633C52.147 37.7966 52.2803 37.6966 52.2803 37.1933C52.2803 36.8933 52.0803 36.6933 51.3103 36.6933C49.537 36.6933 48.9703 38.1933 48.9037 39.9333C48.8703 40.6 48.7703 41.2333 48.6037 41.87C47.8703 44.51 46.3303 46.55 45.327 46.55C44.8603 46.55 44.727 46.0833 44.727 45.48C44.727 43.5733 45.7937 41.17 45.7937 39.13C45.7937 37.63 45.127 36.69 43.8937 36.69C42.4203 36.69 40.517 38.43 38.6803 41.67C39.2803 39.1966 39.5137 36.7933 37.7437 36.7933C37.3437 36.7933 36.9759 36.8933 36.6403 37.0933C36.5268 37.1459 36.4313 37.231 36.3661 37.3377C36.3008 37.4445 36.2687 37.5683 36.2737 37.6933C36.4403 40.3333 34.1337 47.1166 31.9637 47.1166C31.5637 47.1166 31.3637 46.6833 31.3637 45.9833C31.3637 44.0766 32.497 40.0333 33.0637 38.16C33.126 37.9545 33.1596 37.7413 33.1637 37.5266C33.1637 37.0266 32.8637 36.76 32.1303 36.76C31.3637 36.76 30.4937 37.06 29.6903 38.4933C29.3903 37.2266 28.557 36.6933 27.3503 36.6933C25.3803 36.6933 23.207 38.76 22.237 41.47C20.937 45.08 18.3637 48.5866 14.8537 48.5866C11.6803 48.5866 10.007 45.9466 10.007 41.77C10.007 35.7233 14.4537 30.81 17.727 30.81C19.297 30.81 20.0337 31.81 20.0337 33.35C20.0337 35.22 19.0003 36.0566 19.0003 36.79C19.0003 36.99 19.167 37.2233 19.5337 37.2233C20.967 37.2233 22.6403 35.5566 22.6403 33.25C22.6403 30.9433 20.8337 29.3066 17.5603 29.3066C12.1137 29.3066 6.66699 34.7533 6.66699 41.7733C6.66699 47.35 9.40699 50.6933 14.1537 50.6933C17.3937 50.6933 20.2337 48.1866 21.737 45.2466C21.9037 47.6866 23.007 48.9533 24.7103 48.9533C26.2137 48.9533 27.417 48.0533 28.3537 46.4833C28.7203 48.1166 29.6537 48.92 30.8937 48.92C32.2937 48.92 33.5003 48.02 34.6003 46.3833C34.6003 47.6833 34.867 48.92 36.007 48.92C36.5403 48.92 37.1737 48.7866 37.2737 48.32C38.477 43.4066 41.4203 39.3633 42.3203 39.3633C42.587 39.3633 42.6537 39.63 42.6537 39.93C42.6537 41.27 41.7203 44.01 41.7203 45.7466C41.7203 47.6533 42.5203 48.8866 44.1937 48.8866C46.0303 48.8866 47.9003 46.65 49.137 43.34C49.537 46.4166 50.3737 48.8866 51.677 48.8866C53.2803 48.8866 56.187 45.48 57.927 41.87C58.5937 41.97 59.6303 41.9366 60.6337 41.2366C60.2003 42.3033 59.967 43.4733 59.967 44.61C59.967 47.9533 61.567 48.8866 62.937 48.8866C64.4403 48.8866 65.6437 47.9866 66.5803 46.4166C66.8803 47.8166 67.6803 48.8533 69.1203 48.8533C71.3603 48.8533 73.3303 46.55 73.3303 44.6433C73.3637 44.2433 73.1303 43.91 72.897 43.91ZM26.1137 47.0833C25.2137 47.0833 24.847 46.1833 24.847 44.81C24.847 42.44 26.4803 38.4633 28.187 38.4633C28.9203 38.4633 29.2203 39.33 29.2203 40.4333C29.2203 42.84 27.687 47.0833 26.1137 47.0833ZM57.2903 40C56.757 39.3666 56.557 38.4633 56.557 37.6933C56.557 36.7266 56.9237 35.9233 57.3237 35.9233C57.7237 35.9233 57.8903 36.3233 57.8903 36.9233C57.857 37.86 57.5237 39.2966 57.2903 40ZM64.3403 47.0833C63.4403 47.0833 63.0737 46.0166 63.0737 44.81C63.0737 42.5066 64.707 38.4633 66.4137 38.4633C67.147 38.4633 67.4137 39.33 67.4137 40.4333C67.447 42.84 65.947 47.0833 64.3403 47.0833Z" fill="#131313"/>
</svg>
