<svg width="1371" height="344" viewBox="0 0 1371 344" fill="none" xmlns="http://www.w3.org/2000/svg">
<path d="M1291.09 343.84C1265.63 343.84 1246.36 336.677 1233.31 322.35C1220.26 307.705 1213.73 286.852 1213.73 259.79V240.688H1263.4V263.611C1263.4 285.26 1272.47 296.084 1290.62 296.084C1299.53 296.084 1306.22 293.537 1310.67 288.444C1315.45 283.031 1317.84 274.435 1317.84 262.656C1317.84 248.647 1314.65 236.39 1308.29 225.884C1301.92 215.059 1290.14 202.165 1272.95 187.202C1251.3 168.1 1236.18 150.908 1227.58 135.626C1218.98 120.026 1214.69 102.515 1214.69 83.0947C1214.69 56.6699 1221.37 36.2942 1234.74 21.9676C1248.11 7.32252 1267.54 0 1293.01 0C1318.16 0 1337.1 7.32252 1349.83 21.9676C1362.89 36.2942 1369.41 56.9883 1369.41 84.0498V97.8989H1319.75V80.7069C1319.75 69.2456 1317.52 60.9679 1313.06 55.874C1308.61 50.4617 1302.08 47.7556 1293.48 47.7556C1275.97 47.7556 1267.22 58.421 1267.22 79.7518C1267.22 91.8499 1270.4 103.152 1276.77 113.658C1283.45 124.164 1295.39 136.899 1312.58 151.863C1334.55 170.965 1349.68 188.316 1357.95 203.916C1366.23 219.516 1370.37 237.823 1370.37 258.835C1370.37 286.215 1363.52 307.227 1349.83 321.872C1336.46 336.517 1316.88 343.84 1291.09 343.84Z" fill="white"/>
<path d="M1089.92 52.5305H1035V4.7749H1197.37V52.5305H1142.45V339.064H1089.92V52.5305Z" fill="white"/>
<path d="M940.055 343.84C914.904 343.84 895.642 336.677 882.271 322.35C869.218 308.023 862.691 287.807 862.691 261.7V82.1395C862.691 56.0332 869.218 35.8167 882.271 21.49C895.642 7.16334 914.904 0 940.055 0C965.206 0 984.308 7.16334 997.362 21.49C1010.73 35.8167 1017.42 56.0332 1017.42 82.1395V117.479H967.753V78.7967C967.753 58.1026 958.998 47.7556 941.488 47.7556C923.977 47.7556 915.222 58.1026 915.222 78.7967V265.521C915.222 285.897 923.977 296.084 941.488 296.084C958.998 296.084 967.753 285.897 967.753 265.521V214.422H1017.42V261.7C1017.42 287.807 1010.73 308.023 997.362 322.35C984.308 336.677 965.206 343.84 940.055 343.84Z" fill="white"/>
<path d="M692.549 4.7749H835.816V52.5305H745.08V140.878H817.191V188.634H745.08V291.308H835.816V339.064H692.549V4.7749Z" fill="white"/>
<path d="M578.58 340.974C569.029 340.974 560.911 340.337 554.225 339.064V291.308C559.319 292.582 565.05 293.218 571.417 293.218C581.923 293.218 589.723 290.672 594.817 285.578C599.911 280.165 602.458 272.047 602.458 261.222V4.7749H654.989V259.79C654.989 287.169 648.622 307.545 635.887 320.917C623.471 334.288 604.368 340.974 578.58 340.974Z" fill="white"/>
<path d="M452.751 343.84C426.963 343.84 407.224 336.517 393.534 321.872C379.844 307.227 373 286.533 373 259.79V84.0498C373 57.3067 379.844 36.6126 393.534 21.9676C407.224 7.32252 426.963 0 452.751 0C478.539 0 498.278 7.32252 511.968 21.9676C525.658 36.6126 532.503 57.3067 532.503 84.0498V259.79C532.503 286.533 525.658 307.227 511.968 321.872C498.278 336.517 478.539 343.84 452.751 343.84ZM452.751 296.084C470.898 296.084 479.972 285.101 479.972 263.133V80.7069C479.972 58.7393 470.898 47.7556 452.751 47.7556C434.604 47.7556 425.531 58.7393 425.531 80.7069V263.133C425.531 285.101 434.604 296.084 452.751 296.084Z" fill="white"/>
<path d="M184.213 4.7749H262.055C289.116 4.7749 308.855 11.1423 321.272 23.8771C333.688 36.2936 339.896 55.555 339.896 81.6614V102.196C339.896 136.899 328.435 158.866 305.512 168.099V169.054C318.247 172.874 327.162 180.675 332.256 192.454C337.668 204.234 340.374 219.993 340.374 239.732V298.472C340.374 308.023 340.692 315.823 341.329 321.872C341.966 327.602 343.558 333.333 346.105 339.064H292.618C290.708 333.652 289.435 328.558 288.798 323.782C288.161 319.006 287.843 310.41 287.843 297.994V236.867C287.843 221.585 285.296 210.92 280.202 204.871C275.426 198.822 266.99 195.797 254.892 195.797H236.744V339.064H184.213V4.7749ZM255.847 148.042C266.353 148.042 274.153 145.335 279.247 139.923C284.659 134.511 287.365 125.437 287.365 112.702V86.9145C287.365 74.8164 285.137 66.0612 280.68 60.6489C276.541 55.2366 269.855 52.5305 260.622 52.5305H236.744V148.042H255.847Z" fill="white"/>
<path d="M0 4.7749H77.364C103.47 4.7749 123.05 11.7791 136.103 25.7874C149.157 39.7956 155.683 60.3305 155.683 87.392V120.343C155.683 147.405 149.157 167.94 136.103 181.948C123.05 195.956 103.47 202.96 77.364 202.96H52.5311V339.064H0V4.7749ZM77.364 155.205C85.96 155.205 92.3274 152.817 96.4662 148.042C100.923 143.266 103.152 135.148 103.152 123.686V84.0491C103.152 72.5878 100.923 64.4693 96.4662 59.6938C92.3274 54.9182 85.96 52.5305 77.364 52.5305H52.5311V155.205H77.364Z" fill="white"/>
</svg>
