<svg width="1371" height="344" viewBox="0 0 1371 344" fill="none" xmlns="http://www.w3.org/2000/svg">
<path d="M1293.01 0.75C1318.01 0.750047 1336.72 8.02427 1349.27 22.46L1349.27 22.4658L1349.28 22.4727C1362.16 36.6147 1368.66 57.101 1368.66 84.0498V97.1484H1320.5V80.707C1320.5 69.1801 1318.26 60.678 1313.63 55.3799C1309 49.7677 1302.24 47.0059 1293.48 47.0059C1284.57 47.0059 1277.76 49.7271 1273.2 55.2783C1268.67 60.8012 1266.47 69.003 1266.47 79.752C1266.47 91.9892 1269.69 103.425 1276.13 114.047L1276.13 114.054L1276.14 114.061C1282.88 124.659 1294.88 137.45 1312.09 152.429H1312.09C1334.03 171.504 1349.08 188.785 1357.29 204.268C1365.5 219.741 1369.62 237.922 1369.62 258.835C1369.62 286.095 1362.81 306.898 1349.29 321.36L1349.28 321.367C1336.09 335.813 1316.74 343.09 1291.1 343.09C1265.77 343.09 1246.74 335.972 1233.87 321.851C1220.98 307.388 1214.48 286.737 1214.48 259.79V241.438H1262.65V263.61C1262.65 274.521 1264.93 282.845 1269.63 288.448C1274.35 294.076 1281.39 296.834 1290.62 296.834C1299.68 296.834 1306.6 294.242 1311.24 288.938L1311.24 288.937C1316.19 283.323 1318.59 274.508 1318.59 262.655C1318.59 248.971 1315.57 236.911 1309.52 226.498L1308.93 225.495C1302.5 214.567 1290.65 201.613 1273.44 186.636H1273.44C1252.5 168.156 1237.72 151.506 1229.05 136.687L1228.23 135.258C1219.71 119.78 1215.44 102.398 1215.44 83.0947C1215.44 56.7927 1222.09 36.6248 1235.29 22.4795L1235.3 22.4736C1248.49 8.02572 1267.68 0.75 1293.01 0.75Z" stroke="white" stroke-width="1.5"/>
<path d="M1196.62 5.5249V51.7808H1141.7V338.314H1090.67V51.7808H1035.75V5.5249H1196.62Z" stroke="white" stroke-width="1.5"/>
<path d="M940.055 0.75C964.671 0.750043 983.344 7.64678 996.2 21.3379L996.807 21.9951L996.813 22.002C1010.02 36.1488 1016.67 56.1587 1016.67 82.1396V116.729H968.503V78.7969C968.503 68.362 966.298 60.3956 961.759 55.0312C957.2 49.6429 950.394 47.0059 941.488 47.0059C932.581 47.0059 925.776 49.643 921.216 55.0312C916.677 60.3956 914.472 68.362 914.472 78.7969V265.521C914.472 275.798 916.677 283.648 921.219 288.933C925.78 294.239 932.585 296.834 941.488 296.834C950.391 296.834 957.195 294.239 961.755 288.933C966.297 283.648 968.503 275.798 968.503 265.521V215.173H1016.67V261.7C1016.67 287.681 1010.02 307.691 996.813 321.838L996.807 321.845C983.935 335.972 965.062 343.09 940.055 343.09C915.049 343.09 896.011 335.972 882.819 321.838C869.934 307.692 863.441 287.681 863.441 261.7V82.1396C863.441 56.1585 869.934 36.1481 882.819 22.002C896.011 7.86753 915.049 0.75 940.055 0.75Z" stroke="white" stroke-width="1.5"/>
<path d="M835.066 5.5249V51.7808H744.331V141.628H816.441V187.884H744.331V292.058H835.066V338.314H693.299V5.5249H835.066Z" stroke="white" stroke-width="1.5"/>
<path d="M654.24 5.5249V259.79C654.24 287.068 647.894 307.221 635.344 320.399L635.337 320.407C623.113 333.571 604.248 340.224 578.581 340.224C569.349 340.224 561.484 339.624 554.975 338.437V292.259C559.902 293.4 565.384 293.968 571.417 293.968C582.031 293.968 590.059 291.396 595.347 286.108L595.356 286.1L595.364 286.091C600.638 280.488 603.208 272.151 603.208 261.222V5.5249H654.24Z" stroke="white" stroke-width="1.5"/>
<path d="M452.751 0.75C478.395 0.750035 497.91 8.02677 511.42 22.4795C524.942 36.9445 531.753 57.4319 531.753 84.0498V259.79C531.753 286.408 524.942 306.895 511.42 321.36C497.91 335.813 478.395 343.09 452.751 343.09C427.108 343.09 407.593 335.813 394.083 321.36C380.561 306.895 373.75 286.408 373.75 259.79V84.0498L373.754 82.8066C373.964 56.7932 380.772 36.7185 394.083 22.4795C407.593 8.02686 427.108 0.75 452.751 0.75ZM452.751 47.0059C443.521 47.0059 436.474 49.8059 431.757 55.5156C427.063 61.1979 424.781 69.6388 424.781 80.707V263.133C424.781 274.201 427.063 282.642 431.757 288.324C436.474 294.034 443.521 296.834 452.751 296.834C461.982 296.834 469.028 294.034 473.745 288.324C478.439 282.642 480.722 274.201 480.722 263.133V80.707C480.722 69.6388 478.439 61.1979 473.745 55.5156C469.028 49.8061 461.982 47.0059 452.751 47.0059Z" stroke="white" stroke-width="1.5"/>
<path d="M262.055 5.5249C289.018 5.52494 308.519 11.8714 320.735 24.4009L320.742 24.4077C332.962 36.6277 339.146 55.6583 339.146 81.6616V102.196C339.146 119.472 336.292 133.51 330.635 144.352C324.987 155.178 316.527 162.853 305.232 167.403L304.762 167.592V169.612L305.297 169.772C317.829 173.531 326.564 181.183 331.567 192.751L331.571 192.759L331.574 192.767C336.924 204.411 339.624 220.05 339.625 239.732V298.471C339.625 308.036 339.943 315.865 340.583 321.951V321.955C341.19 327.416 342.652 332.869 344.961 338.314H293.153C291.354 333.128 290.151 328.252 289.542 323.683C288.912 318.963 288.593 310.413 288.593 297.994V236.867C288.593 221.55 286.049 210.65 280.775 204.387C275.789 198.088 267.075 195.047 254.891 195.047H235.995V338.314H184.963V5.5249H262.055ZM235.995 148.792H255.847C266.473 148.791 274.507 146.053 279.793 140.437L279.792 140.436C285.403 134.813 288.116 125.499 288.116 112.703V86.9146C288.116 75.137 286.019 66.3503 281.685 60.7085L281.258 60.1724C276.93 54.5282 269.988 51.7808 260.623 51.7808H235.995V148.792Z" stroke="white" stroke-width="1.5"/>
<path d="M77.3643 5.5249C103.341 5.52495 122.689 12.4916 135.555 26.2983C148.433 40.1194 154.934 60.4419 154.934 87.3921V120.343C154.934 147.293 148.433 167.616 135.555 181.437C122.689 195.244 103.341 202.21 77.3643 202.21H51.7812V338.314H0.75V5.5249H77.3643ZM51.7812 155.955H77.3643C86.0954 155.955 92.7057 153.526 97.0332 148.533L97.0322 148.532C101.674 143.542 103.902 135.191 103.902 123.686V84.0493C103.902 72.8891 101.806 64.6951 97.4434 59.6597L97.0146 59.1821C92.6868 54.2029 86.0833 51.7808 77.3643 51.7808H51.7812V155.955Z" stroke="white" stroke-width="1.5"/>
</svg>
