<svg width="335" height="55" viewBox="0 0 335 55" fill="none" xmlns="http://www.w3.org/2000/svg">
    <path d="M24.6617 22.3696C26.097 20.6445 28.8669 21.9473 28.4681 24.1602L26.1131 37.2349C25.9233 38.2881 26.5155 39.324 27.5145 39.6848L39.9164 44.164C42.0155 44.9221 41.7493 47.9953 39.5505 48.3866L2.55591 54.964C0.556735 55.3192 -0.787871 52.9697 0.516757 51.4007L24.6617 22.3696ZM57.4431 0.0360867C59.4425 -0.319439 60.7882 2.03129 59.4833 3.60035L35.3383 32.6315C33.9031 34.3564 31.1317 33.0534 31.5299 30.8408L33.8869 17.7652C34.0766 16.7121 33.4843 15.6771 32.4855 15.3162L20.0826 10.8361C17.9838 10.0778 18.2506 7.00556 20.4495 6.61449L57.4431 0.0360867Z" fill="black"/>
    <path d="M334.056 19.5312H314.249C313.999 19.5312 313.82 19.71 313.82 19.9603V25.3589C313.82 25.6092 313.999 25.788 314.249 25.788H329.873C330.231 25.788 330.517 26.074 330.517 26.4315V29.3275C330.517 29.685 330.231 29.9711 329.873 29.9711H314.249C313.999 29.9711 313.82 30.1498 313.82 30.3644V35.7988C313.82 36.0491 313.999 36.2278 314.249 36.2278H334.056C334.414 36.2278 334.7 36.5138 334.7 36.8356V39.7674C334.7 40.1249 334.414 40.3752 334.056 40.3752H310.281C309.923 40.3752 309.673 40.1249 309.673 39.7674V15.9917C309.673 15.6342 309.923 15.3481 310.281 15.3481H334.056C334.414 15.3481 334.7 15.6342 334.7 15.9917V18.9234C334.7 19.2452 334.414 19.5312 334.056 19.5312Z" fill="black"/>
    <path d="M302.53 23.7143C302.208 23.7143 301.922 23.4283 301.922 23.0708V19.9603C301.922 19.71 301.743 19.5312 301.493 19.5312H285.654C285.404 19.5312 285.225 19.71 285.225 19.9603V25.3589C285.225 25.6092 285.404 25.788 285.654 25.788H301.922C304.21 25.788 306.105 27.6471 306.105 29.9711V36.2278C306.105 38.516 304.21 40.3752 301.922 40.3752H285.225C282.937 40.3752 281.078 38.516 281.078 36.2278V32.6883C281.078 32.3308 281.328 32.0447 281.686 32.0447H284.618C284.939 32.0447 285.225 32.3308 285.225 32.6883V35.7988C285.225 36.0491 285.404 36.2278 285.654 36.2278H301.493C301.743 36.2278 301.922 36.0491 301.922 35.7988V30.3644C301.922 30.1498 301.743 29.9711 301.493 29.9711H285.225C282.937 29.9711 281.078 28.1119 281.078 25.788V19.5312C281.078 17.243 282.937 15.3481 285.225 15.3481H301.922C304.21 15.3481 306.105 17.243 306.105 19.5312V23.0708C306.105 23.4283 305.819 23.7143 305.462 23.7143H302.53Z" fill="black"/>
    <path d="M274.864 32.152L277.331 39.5528C277.474 39.9819 277.152 40.4109 276.723 40.4109H273.648C273.398 40.4109 273.148 40.2321 273.076 39.9819L270.538 32.3308C270.466 32.152 270.323 32.0447 270.109 32.0447H257.059C256.809 32.0447 256.63 32.2235 256.63 32.4738V39.7674C256.63 40.1249 256.344 40.3752 256.022 40.3752H253.09C252.733 40.3752 252.482 40.1249 252.482 39.7674V15.9917C252.482 15.6342 252.733 15.3481 253.09 15.3481H273.326C275.615 15.3481 277.509 17.243 277.509 19.5312V27.8974C277.509 29.542 276.508 31.0079 275.078 31.6515C274.899 31.7587 274.792 31.9732 274.864 32.152ZM273.326 27.4684V19.9603C273.326 19.71 273.148 19.5312 272.897 19.5312H257.059C256.809 19.5312 256.63 19.71 256.63 19.9603V27.4684C256.63 27.6829 256.809 27.8616 257.059 27.8616H272.897C273.148 27.8616 273.326 27.6829 273.326 27.4684Z" fill="black"/>
    <path d="M248.27 19.5312H228.463C228.213 19.5312 228.034 19.71 228.034 19.9603V25.3589C228.034 25.6092 228.213 25.788 228.463 25.788H244.087C244.445 25.788 244.731 26.074 244.731 26.4315V29.3275C244.731 29.685 244.445 29.9711 244.087 29.9711H228.463C228.213 29.9711 228.034 30.1498 228.034 30.3644V35.7988C228.034 36.0491 228.213 36.2278 228.463 36.2278H248.27C248.628 36.2278 248.914 36.5138 248.914 36.8356V39.7674C248.914 40.1249 248.628 40.3752 248.27 40.3752H224.495C224.137 40.3752 223.887 40.1249 223.887 39.7674V15.9917C223.887 15.6342 224.137 15.3481 224.495 15.3481H248.27C248.628 15.3481 248.914 15.6342 248.914 15.9917V18.9234C248.914 19.2452 248.628 19.5312 248.27 19.5312Z" fill="black"/>
    <path d="M216.015 15.7772C216.086 15.5269 216.337 15.3481 216.587 15.3481H219.662C220.091 15.3481 220.412 15.7772 220.269 16.2062L212.332 39.9819C212.261 40.2321 212.01 40.3752 211.76 40.3752H199.926C199.64 40.3752 199.39 40.2321 199.318 39.9819L191.381 16.2062C191.274 15.7772 191.56 15.3481 191.989 15.3481H195.064C195.35 15.3481 195.564 15.5269 195.671 15.7772L202.357 35.9418C202.429 36.1206 202.607 36.2278 202.786 36.2278H208.9C209.079 36.2278 209.222 36.1206 209.293 35.9418L216.015 15.7772Z" fill="black"/>
    <path d="M187.17 19.5312H167.363C167.112 19.5312 166.933 19.71 166.933 19.9603V25.3589C166.933 25.6092 167.112 25.788 167.363 25.788H182.987C183.344 25.788 183.63 26.074 183.63 26.4315V29.3275C183.63 29.685 183.344 29.9711 182.987 29.9711H167.363C167.112 29.9711 166.933 30.1498 166.933 30.3644V35.7988C166.933 36.0491 167.112 36.2278 167.363 36.2278H187.17C187.527 36.2278 187.813 36.5138 187.813 36.8356V39.7674C187.813 40.1249 187.527 40.3752 187.17 40.3752H163.394C163.036 40.3752 162.786 40.1249 162.786 39.7674V15.9917C162.786 15.6342 163.036 15.3481 163.394 15.3481H187.17C187.527 15.3481 187.813 15.6342 187.813 15.9917V18.9234C187.813 19.2452 187.527 19.5312 187.17 19.5312Z" fill="black"/>
    <path d="M155.034 15.3481C157.323 15.3481 159.217 17.243 159.217 19.5312V36.2278C159.217 38.516 157.323 40.3752 155.034 40.3752H134.798C134.441 40.3752 134.19 40.1249 134.19 39.7674V15.9917C134.19 15.6342 134.441 15.3481 134.798 15.3481H155.034ZM155.034 35.7988V19.9603C155.034 19.71 154.856 19.5312 154.605 19.5312H138.767C138.517 19.5312 138.338 19.71 138.338 19.9603V35.7988C138.338 36.0491 138.517 36.2278 138.767 36.2278H154.605C154.856 36.2278 155.034 36.0491 155.034 35.7988Z" fill="black"/>
    <path d="M126.44 15.3481C128.728 15.3481 130.623 17.243 130.623 19.5312V36.2278C130.623 38.516 128.728 40.3752 126.44 40.3752H109.743C107.455 40.3752 105.596 38.516 105.596 36.2278V19.5312C105.596 17.243 107.455 15.3481 109.743 15.3481H126.44ZM126.44 35.7988V19.9603C126.44 19.71 126.261 19.5312 126.011 19.5312H110.172C109.922 19.5312 109.743 19.71 109.743 19.9603V35.7988C109.743 36.0491 109.922 36.2278 110.172 36.2278H126.011C126.261 36.2278 126.44 36.0491 126.44 35.7988Z" fill="black"/>
    <path d="M81.1473 15.3481H97.8439C100.132 15.3481 102.027 17.243 102.027 19.5312V23.0708C102.027 23.4283 101.741 23.7143 101.383 23.7143H98.4517C98.1299 23.7143 97.8439 23.4283 97.8439 23.0708V19.9603C97.8439 19.71 97.6652 19.5312 97.4149 19.5312H81.5764C81.3261 19.5312 81.1473 19.71 81.1473 19.9603V35.7988C81.1473 36.0491 81.3261 36.2278 81.5764 36.2278H97.4149C97.6652 36.2278 97.8439 36.0491 97.8439 35.7988V32.6883C97.8439 32.3308 98.1299 32.0447 98.4517 32.0447H101.383C101.741 32.0447 102.027 32.3308 102.027 32.6883V36.2278C102.027 38.516 100.132 40.3752 97.8439 40.3752H81.1473C78.8591 40.3752 77 38.516 77 36.2278V19.5312C77 17.243 78.8591 15.3481 81.1473 15.3481Z" fill="black"/>
</svg>