<svg width="603" height="159" viewBox="0 0 603 159" fill="none" xmlns="http://www.w3.org/2000/svg">
<path d="M89.2451 22.4658V121.786L120.544 105.65L98.0674 72.6807L129.994 100.778V119.517L107.727 141.101L107.726 141.093L89.2451 159L60.6172 136.534V46.1191L11.9893 80.3467L53.3662 130.867L0 88.7812V65.7041L60.6172 0L89.2451 22.4658ZM206.097 49.6914C210.616 49.6914 214.439 49.9615 217.536 50.4854C220.625 51.0092 223.19 51.8216 225.206 52.9043C227.23 53.987 228.792 55.3321 229.874 56.9648C230.973 58.5802 231.777 60.5009 232.274 62.7012C232.772 64.9102 233.068 67.3905 233.155 70.167C233.26 72.9434 233.304 76.0167 233.304 79.3955C233.304 82.7746 233.26 85.8484 233.155 88.625C233.068 91.3926 232.772 93.8722 232.274 96.0898C231.777 98.2902 230.973 100.212 229.874 101.827C228.792 103.46 227.221 104.813 225.206 105.896C223.182 106.978 220.625 107.782 217.536 108.314C214.439 108.847 210.616 109.108 206.097 109.108H161.692V49.6914H206.097ZM253.05 109.105H245.633V49.6875H253.05V109.105ZM386.342 49.6875C390.862 49.6875 394.666 49.8449 397.764 50.168C400.861 50.491 403.427 50.9711 405.442 51.6172C407.467 52.2633 409.02 53.0581 410.11 54.0098C411.201 54.9615 411.995 56.0877 412.492 57.3799C412.998 58.6721 413.296 60.1131 413.383 61.7109C413.47 63.3087 413.514 65.0724 413.514 67.0107C413.514 69.4905 413.339 71.6647 412.999 73.542C412.65 75.4018 412.065 76.9999 411.245 78.3096V78.3184C410.425 79.6367 409.325 80.6927 407.964 81.4697C406.603 82.2643 404.883 82.8057 402.824 83.1113C404.892 83.4169 406.524 83.9584 407.771 84.7354C409.002 85.5125 409.953 86.5082 410.625 87.7568C411.288 88.9879 411.742 90.4547 411.96 92.1572C412.178 93.8599 412.283 95.7897 412.283 97.9639V109.097H404.884V97.9639C404.884 96.1652 404.849 94.6018 404.779 93.3008C404.727 92 404.509 90.8824 404.125 89.957C403.759 89.0315 403.174 88.2892 402.371 87.7129C401.577 87.1453 400.451 86.7001 398.977 86.3945C397.511 86.089 395.652 85.8791 393.401 85.7656C391.168 85.6521 388.383 85.5908 385.094 85.5908H351.814V109.105H344.398V49.6875H386.342ZM499.051 109.105H491.284L483.589 95.4932L480.081 89.3018L460.439 54.6035L440.737 89.3018L437.229 95.4932L429.499 109.105H420.93L454.725 49.6875H465.361L499.051 109.105ZM521.72 49.6875L556.229 101.684L590.783 49.6875H602.99V109.105H595.591V55.4502L560.409 109.105H552.931L517.208 54.6465V109.105H509.81V49.6875H521.72ZM312.366 49.6875C316.057 49.6875 319.155 49.8536 321.686 50.168C324.216 50.491 326.31 50.9711 327.959 51.6172C329.599 52.2633 330.874 53.0581 331.746 54.0098C332.636 54.9614 333.281 56.0965 333.691 57.3799C334.119 58.6721 334.346 60.1131 334.407 61.7109C334.477 63.3087 334.512 65.0724 334.512 67.0107C334.512 68.949 334.468 70.8872 334.381 72.5811C334.276 74.2836 333.989 75.8207 333.491 77.2002C332.994 78.5798 332.191 79.794 331.092 80.8418C330.01 81.8808 328.447 82.7449 326.423 83.4521C324.407 84.1419 321.859 84.6655 318.753 85.0322C315.655 85.3989 311.834 85.5742 307.314 85.5742H275.256V109.088H267.857V49.6875H312.366ZM169.118 102.909H206.114C209.378 102.909 212.144 102.822 214.413 102.647C216.664 102.455 218.531 102.089 219.997 101.548C221.463 100.989 222.598 100.185 223.392 99.1289C224.194 98.0724 224.762 96.6575 225.146 94.9287C225.459 93.4008 225.671 91.5719 225.766 89.4365L225.8 88.5117C225.861 85.9709 225.887 82.923 225.887 79.3955C225.887 75.8682 225.861 72.8298 225.8 70.2891C225.73 67.7482 225.512 65.6086 225.146 63.8623C224.77 62.1247 224.194 60.7186 223.392 59.6621C222.598 58.6057 221.463 57.7943 219.997 57.2529C218.531 56.6941 216.672 56.3269 214.421 56.1348C212.17 55.9602 209.404 55.873 206.114 55.873H169.118V102.909ZM275.265 79.4004H307.323C310.613 79.4004 313.379 79.3391 315.63 79.2256C317.881 79.1121 319.739 78.9032 321.205 78.5977C322.671 78.2921 323.806 77.8468 324.6 77.2793C325.402 76.703 325.987 75.9606 326.354 75.0352C326.737 74.1096 326.955 72.9914 327.008 71.6904C327.06 70.3895 327.112 68.8268 327.112 67.0283C327.112 65.3519 327.069 63.9197 327.008 62.6973C326.947 61.475 326.729 60.471 326.354 59.6416C325.987 58.8034 325.402 58.1569 324.6 57.6592C323.806 57.179 322.671 56.795 321.205 56.5156C319.739 56.2537 317.881 56.0786 315.63 56C313.379 55.9302 310.613 55.8867 307.323 55.8867H275.265V79.4004ZM351.806 79.3916H386.333C389.622 79.3916 392.388 79.3313 394.64 79.2178C396.882 79.1043 398.75 78.8945 400.216 78.5889C401.681 78.2833 402.807 77.8466 403.609 77.2705C404.395 76.6943 404.979 75.9518 405.363 75.0264C405.721 74.1008 405.949 72.9914 406.019 71.6816C406.08 70.3808 406.105 68.8267 406.105 67.0195C406.105 65.3431 406.08 63.9022 406.019 62.6885C405.949 61.4661 405.73 60.4535 405.363 59.6328C404.988 58.7946 404.403 58.1481 403.609 57.6504C402.807 57.1703 401.681 56.7862 400.216 56.5068C398.75 56.2449 396.882 56.0611 394.64 55.9912C392.388 55.9214 389.622 55.8779 386.333 55.8779H351.806V79.3916Z" fill="black"/>
</svg>
