<svg width="353" height="102" viewBox="0 0 353 102" fill="none" xmlns="http://www.w3.org/2000/svg">
    <path d="M54.8145 59.5605H56.1035L61.2441 65.9795L58.666 82.6777L56.1035 81.4551L52.251 102L48.3994 99.4287L47.1182 87.873L44.5547 86.5908L40.6885 65.9795L44.5547 62.125H45.8369L50.9697 54.4248L54.8145 59.5605ZM213.525 56.0479C214.688 56.0479 215.792 56.5368 216.829 57.5225C217.866 58.5007 218.392 59.6937 218.393 61.0869C218.393 61.6131 218.207 62.0509 217.837 62.4141C217.467 62.7772 217.059 62.9629 216.607 62.9629C215.985 62.9629 215.555 62.8217 215.318 62.54C215.089 62.2584 214.866 61.7318 214.651 60.9609C214.444 60.1904 213.97 59.8047 213.244 59.8047H204.186C203.749 59.8047 203.533 59.9459 203.533 60.2275C203.518 60.4054 203.607 60.613 203.8 60.8428L217.407 78.208C218.059 79.0529 218.393 79.9505 218.393 80.9141C218.392 82.0034 217.999 82.9591 217.207 83.7891C216.414 84.6192 215.533 85.0342 214.562 85.0342H204.696C203.385 85.0342 202.252 84.538 201.289 83.5449C200.326 82.5518 199.837 81.4549 199.837 80.2617C199.837 78.898 200.474 78.2158 201.756 78.2158C202.252 78.2159 202.667 78.3934 203.022 78.749C203.371 79.1048 203.548 79.5202 203.548 80.002C203.548 80.3948 203.682 80.7211 203.948 80.9805C204.215 81.2398 204.556 81.373 204.963 81.373H214.066C214.459 81.373 214.651 81.2175 214.651 80.9062C214.659 80.758 214.57 80.5657 214.385 80.3359L200.8 62.9697C200.163 62.1397 199.837 61.2429 199.837 60.2646C199.837 59.1307 200.245 58.1451 201.06 57.3076C201.874 56.4703 202.852 56.0548 204.007 56.0547L203.992 56.0479H213.525ZM120.859 56.04C121.356 56.04 121.785 56.2257 122.148 56.5889C122.511 56.9519 122.696 57.3815 122.696 57.8779V81.3584H135.638C136.149 81.3585 136.586 81.5369 136.956 81.8926C137.326 82.2483 137.512 82.6782 137.512 83.1895C137.512 83.7007 137.326 84.1306 136.956 84.4863C136.586 84.842 136.149 85.0194 135.638 85.0195H119.022V57.8779C119.023 57.3816 119.208 56.9519 119.57 56.5889C119.933 56.2257 120.363 56.0401 120.859 56.04ZM155.304 56.04C156.244 56.04 156.785 56.4255 157.022 57.1963L164.319 82.6406C164.379 82.8333 164.408 83.0116 164.408 83.1895C164.408 83.7007 164.23 84.1306 163.882 84.4863C163.534 84.8421 163.133 85.0195 162.682 85.0195C161.726 85.0195 161.112 84.5751 160.853 83.6934L155.274 64.5342V64.5264L149.43 84.041C149.385 84.2708 149.2 84.4936 148.882 84.7012C148.563 84.9087 148.208 85.0127 147.83 85.0127C147.289 85.0127 146.845 84.8269 146.497 84.4639C146.149 84.1008 145.971 83.6563 145.971 83.1377C145.971 82.9228 146.008 82.6926 146.082 82.4629L153.452 57.4033C153.748 56.4995 154.363 56.0401 155.304 56.04ZM184.03 56.0479C186.052 56.0479 187.771 56.7663 189.208 58.2041C190.638 59.642 191.356 61.3768 191.356 63.415V64.9639C191.356 67.1279 190.519 68.9733 188.853 70.5C190.519 72.0565 191.356 73.9025 191.356 76.0371V77.6523C191.356 79.6756 190.637 81.4024 189.208 82.8477C187.778 84.2929 186.052 85.0195 184.03 85.0195H172.83V56.0479H184.03ZM176.534 81.3135H183.941C184.927 81.3134 185.786 80.9503 186.512 80.2314C187.237 79.5127 187.6 78.6532 187.601 77.6455L187.607 77.6523V76.126C187.607 75.1107 187.245 74.2361 186.526 73.5098C185.808 72.7835 184.949 72.42 183.941 72.4199H176.534V81.3135ZM176.489 68.5811H183.941C184.927 68.581 185.786 68.2169 186.512 67.498C187.237 66.7792 187.601 65.9198 187.601 64.9121L187.607 64.9189V63.415C187.607 62.3996 187.245 61.5242 186.526 60.7979C185.808 60.0717 184.949 59.709 183.941 59.709H176.489V68.5811ZM39.8516 44.5811V45.8633L47.5479 51L42.415 54.8467V56.1357L36 61.2803L19.3115 58.7002L20.5332 56.1357L0 52.2822L2.57031 48.4277L14.1182 47.1455L15.4004 44.5811L36 40.7119L39.8516 44.5811ZM82.6299 43.292L81.4072 45.8564L101.94 49.71L99.3701 53.5645L87.8223 54.8467L86.541 57.4111L65.9404 61.2803L62.0889 57.4111V56.1289L54.3926 50.9922L59.5264 47.1455V45.8564L65.9404 40.7129L82.6299 43.292ZM53.5332 2.57227L54.8145 14.127L57.377 15.4092L61.2441 36.0205L57.377 39.875H56.0957L50.9629 47.5762L47.1182 42.4395H45.8291L40.6885 36.0205L43.2666 19.3223L45.8291 20.5449L49.6807 0L53.5332 2.57227ZM213.43 16.9883C214.593 16.9883 215.696 17.4772 216.733 18.4629C217.77 19.4411 218.297 20.6341 218.297 22.0273C218.297 22.5536 218.112 22.9913 217.741 23.3545C217.371 23.7176 216.964 23.9033 216.512 23.9033C215.889 23.9033 215.46 23.7621 215.223 23.4805C214.993 23.1988 214.77 22.6722 214.556 21.9014C214.348 21.1309 213.874 20.7451 213.148 20.7451H204.089C203.652 20.7452 203.438 20.8864 203.438 21.168C203.423 21.3458 203.512 21.5534 203.704 21.7832L217.312 39.1484C217.963 39.9934 218.297 40.891 218.297 41.8545C218.297 42.9438 217.904 43.8995 217.111 44.7295C216.319 45.5596 215.437 45.9746 214.467 45.9746H204.601C203.29 45.9746 202.156 45.4784 201.193 44.4854C200.23 43.4923 199.741 42.3953 199.741 41.2021C199.741 39.8384 200.379 39.1562 201.66 39.1562C202.156 39.1564 202.571 39.3338 202.927 39.6895C203.275 40.0452 203.452 40.4607 203.452 40.9424C203.452 41.3352 203.586 41.6615 203.853 41.9209C204.119 42.1802 204.46 42.3135 204.867 42.3135H213.971C214.363 42.3135 214.556 42.158 214.556 41.8467C214.563 41.6985 214.474 41.5061 214.289 41.2764L200.704 23.9102C200.067 23.0801 199.741 22.1834 199.741 21.2051C199.741 20.0711 200.149 19.0856 200.964 18.248C201.779 17.4107 202.756 16.9952 203.911 16.9951L203.896 16.9883H213.43ZM351.147 16.9883C351.659 16.9883 352.096 17.1734 352.467 17.5439C352.837 17.9145 353.021 18.352 353.021 18.8633C353.021 19.3744 352.837 19.7893 352.467 20.1523C352.096 20.5155 351.659 20.6934 351.147 20.6934H338.192V29.6104H343.771C344.266 29.6105 344.696 29.7953 345.059 30.1582C345.422 30.5214 345.607 30.9517 345.607 31.4482C345.607 31.9742 345.429 32.4114 345.074 32.7744C344.719 33.1376 344.288 33.3232 343.777 33.3232H338.199V42.3066H351.185C351.681 42.3066 352.111 42.4841 352.474 42.8398C352.837 43.1956 353.021 43.6254 353.021 44.1367C353.021 44.6479 352.837 45.0779 352.467 45.4336C352.096 45.7894 351.659 45.9678 351.147 45.9678H334.548V16.9883H351.147ZM135.519 16.9883C136 16.9883 136.423 17.173 136.793 17.5361C137.163 17.8993 137.349 18.3296 137.349 18.8262C137.349 19.3226 137.163 19.775 136.8 20.1455C136.437 20.5159 136.007 20.7012 135.511 20.7012H122.57V26.4521H131.852C132.363 26.4521 132.793 26.6306 133.148 26.9863C133.504 27.342 133.682 27.7719 133.682 28.2832C133.682 28.7945 133.504 29.2244 133.148 29.5801C132.793 29.9358 132.363 30.1143 131.852 30.1143H122.57V44.1299C122.57 44.6411 122.393 45.0711 122.037 45.4268C121.682 45.7824 121.252 45.9599 120.741 45.96C120.23 45.96 119.8 45.7825 119.444 45.4268C119.089 45.0711 118.911 44.6411 118.911 44.1299H118.919V16.9883H135.519ZM158.859 16.9883C160.356 16.9883 161.645 17.5365 162.727 18.626C163.808 19.7155 164.349 21.0129 164.349 22.5322V24.6221C164.349 26.1488 163.807 27.4531 162.733 28.5352C161.659 29.6172 160.363 30.1582 158.859 30.1582H156.526L164 43.0176C164.23 43.3955 164.349 43.7735 164.349 44.1514C164.349 44.648 164.156 45.071 163.778 45.4268C163.401 45.7825 162.971 45.96 162.489 45.96C161.763 45.9599 161.208 45.6337 160.83 44.9814L152.645 30.8252C152.393 30.388 152.26 29.8837 152.26 29.3799C152.26 27.7865 153.549 26.4893 155.148 26.4893H158.859C159.37 26.4893 159.801 26.3118 160.156 25.9561C160.512 25.6004 160.689 25.1704 160.689 24.6592V22.5244C160.689 22.0131 160.512 21.5833 160.156 21.2275C159.801 20.8718 159.37 20.6934 158.859 20.6934H149.623V44.1299C149.623 44.6411 149.438 45.0711 149.067 45.4268C148.697 45.7824 148.253 45.9599 147.749 45.96C147.245 45.96 146.808 45.7825 146.452 45.4268C146.097 45.0711 145.919 44.6411 145.919 44.1299V16.9883H158.859ZM182.045 16.9883C184.045 16.9884 185.534 17.8848 186.4 19.6709L190.43 27.8906C191 29.0097 191.281 30.225 191.281 31.5293C191.281 32.8338 191 34.0125 190.43 35.1465L186.4 43.2773C185.541 45.0634 184.089 45.9599 182.045 45.96C181.075 45.96 180.193 45.7077 179.423 45.1963C178.645 44.6849 178.06 44.0481 177.667 43.2773L173.615 35.1465C173.074 34.0866 172.808 32.8782 172.808 31.5293C172.808 30.1805 173.075 28.9652 173.615 27.8906L177.667 19.6709C178.586 17.8847 180.045 16.9883 182.045 16.9883ZM264.822 16.9883C266.844 16.9883 268.563 17.7067 270 19.1445C271.43 20.5824 272.148 22.3173 272.148 24.3555V25.9043C272.148 28.0683 271.311 29.9137 269.645 31.4404C271.311 32.9969 272.148 34.843 272.148 36.9775V38.5928C272.148 40.616 271.429 42.3429 270 43.7881C268.57 45.2333 266.844 45.9599 264.822 45.96H253.622V16.9883H264.822ZM297.274 16.9805C297.771 16.9805 298.178 17.1512 298.549 17.4922C298.919 17.8331 299.104 18.285 299.104 18.8555V22.6953L291.741 32.0488V44.1299C291.741 44.6411 291.556 45.0711 291.193 45.4268C290.83 45.7825 290.4 45.9599 289.904 45.96C289.378 45.96 288.941 45.7825 288.578 45.4268C288.215 45.0711 288.03 44.6412 288.03 44.1299V32.0703L280.667 22.7471V18.8633C280.667 18.337 280.845 17.8993 281.2 17.5361C281.556 17.173 281.986 16.9883 282.497 16.9883C283.008 16.9884 283.445 17.1735 283.815 17.5439C284.186 17.9144 284.371 18.359 284.371 18.8701V21.3906L289.859 28.4463L295.438 21.3975V18.8555C295.438 18.3515 295.615 17.9067 295.985 17.5361C296.348 17.1656 296.778 16.9805 297.274 16.9805ZM245.156 21.998C245.156 22.5094 244.97 22.9392 244.607 23.2949C244.245 23.6505 243.815 23.829 243.319 23.8291C242.823 23.8291 242.37 23.6434 242 23.2803C241.63 22.9171 241.444 22.4868 241.444 21.9902V20.6641H237.741V44.0996C237.741 44.6109 237.556 45.0408 237.193 45.3965C236.83 45.7522 236.4 45.9306 235.904 45.9307C235.378 45.9307 234.941 45.7522 234.578 45.3965C234.215 45.0407 234.03 44.611 234.03 44.0996V20.6641H230.326V21.9531C230.326 22.4645 230.149 22.8952 229.793 23.251C229.438 23.6065 229.008 23.7841 228.497 23.7842C227.986 23.7842 227.556 23.6066 227.2 23.251C226.845 22.8952 226.667 22.4645 226.667 21.9531H226.682V17.0029H245.156V21.998ZM326.008 21.998C326.008 22.5094 325.822 22.9392 325.459 23.2949C325.096 23.6505 324.667 23.829 324.171 23.8291C323.675 23.8291 323.222 23.6434 322.852 23.2803C322.481 22.9171 322.296 22.4868 322.296 21.9902V20.6641H318.593V44.0996C318.593 44.6109 318.408 45.0408 318.045 45.3965C317.682 45.7522 317.252 45.9306 316.756 45.9307C316.23 45.9307 315.793 45.7522 315.43 45.3965C315.067 45.0407 314.882 44.611 314.882 44.0996V20.6641H311.178V21.9531C311.178 22.4645 311 22.8952 310.645 23.251C310.289 23.6065 309.859 23.7841 309.349 23.7842C308.838 23.7842 308.407 23.6066 308.052 23.251C307.696 22.8952 307.519 22.4645 307.519 21.9531H307.533V17.0029H326.008V21.998ZM182.037 20.6494C181.511 20.6495 181.104 20.9313 180.815 21.502H180.822L177.03 29.2168C176.682 29.9876 176.504 30.7442 176.504 31.4854C176.504 32.2857 176.682 33.0491 177.03 33.7754L180.934 41.5801C181.134 42.0617 181.504 42.2988 182.045 42.2988C182.511 42.2987 182.867 42.0616 183.111 41.5801L187.03 33.7754C187.393 33.0047 187.578 32.2412 187.578 31.4854C187.578 30.6849 187.393 29.9283 187.03 29.2168L183.192 21.502C182.948 20.9387 182.563 20.6494 182.037 20.6494ZM257.333 42.2539H264.74C265.725 42.2539 266.585 41.8908 267.311 41.1719C268.036 40.453 268.399 39.5938 268.399 38.5859L268.407 38.5928V37.0664C268.407 36.0512 268.044 35.1765 267.326 34.4502C266.608 33.7238 265.748 33.3604 264.74 33.3604H257.333V42.2539ZM257.289 29.5215H264.74C265.725 29.5215 266.585 29.1574 267.311 28.4385C268.036 27.7196 268.399 26.8604 268.399 25.8525L268.407 25.8594V24.3555C268.407 23.3401 268.045 22.4646 267.326 21.7383C266.608 21.0119 265.748 20.6494 264.74 20.6494H257.289V29.5215Z" fill="black"/>
</svg>