<svg width="444" height="224" viewBox="0 0 444 224" fill="none" xmlns="http://www.w3.org/2000/svg">
    <g clip-path="url(#clip0_588_299)">
        <path d="M177.968 119.814V175.884L146.781 193.925L125.99 205.953L94.8027 224V89.2935L125.99 120.549V169.864L146.781 157.836V123.802L94.8027 71.7092V36.4653L177.968 119.814Z" fill="black"/>
        <path d="M177.968 31.2558H125.99V49.4884L94.8027 18.2326V0H146.781L177.968 31.2558Z" fill="black"/>
        <path d="M83.1655 36.4653V224L51.9784 205.953L31.1871 193.925L0 175.884V119.814L31.1871 88.5584V157.831L51.9784 169.864V67.7211L83.1655 36.4653Z" fill="black"/>
        <path d="M83.1655 0V18.2268L51.9784 49.4826V31.2558H0L31.1871 0H83.1655Z" fill="black"/>
    </g>
    <path d="M264.887 186.359H227.608L215.182 173.927L215.183 126.072L235.064 106.178V168.953H245.005V37.1631H264.887V186.359Z" fill="black"/>
    <path d="M294.764 168.955H304.705V37.165H324.587V186.361H287.309L274.882 173.928V37.165H294.764V168.955Z" fill="black"/>
    <path d="M384.298 49.5977V106.545L364.416 98.3203V54.5713H354.475V168.955H364.416V120.88L359.985 107.515L384.298 117.571V186.361H347.02L334.593 173.929V49.5977L347.02 37.165H371.872L384.298 49.5977Z" fill="black"/>
    <path d="M444 49.5977V104.917L424.118 96.6924V54.5713H414.177V98.2305L414.176 98.2314V104.544L444 116.88V186.361H406.722L394.295 173.929V121.711L414.177 129.935V168.955H424.118V123.021L394.295 110.685V49.5977L406.722 37.165H431.574L444 49.5977Z" fill="black"/>
    <defs>
        <clipPath id="clip0_588_299">
            <rect width="177.968" height="224" fill="white"/>
        </clipPath>
    </defs>
</svg>