<svg width="40" height="40" viewBox="0 0 40 40" fill="none" xmlns="http://www.w3.org/2000/svg">
<path d="M20 0C31.0457 0 40 8.9543 40 20C40 31.0457 31.0457 40 20 40C8.9543 40 0 31.0457 0 20C0 8.9543 8.9543 0 20 0ZM20 8C17.4702 8 15.0437 9.01689 13.2549 10.8262C11.4664 12.6354 10.462 15.089 10.4619 17.6475C10.4619 24.8846 19.072 32.2392 19.1201 32.2803C19.6054 32.7241 20.3982 32.7289 20.8799 32.2803C20.928 32.2392 29.5381 24.8846 29.5381 17.6475C29.538 15.089 28.5336 12.6354 26.7451 10.8262C24.9563 9.01689 22.5298 8 20 8ZM20 13.4268C20.5479 13.4268 21.0905 13.536 21.5967 13.748C22.103 13.9602 22.5637 14.2711 22.9512 14.6631C23.3386 15.055 23.6458 15.5203 23.8555 16.0322C24.0652 16.5443 24.1728 17.0932 24.1729 17.6475C24.1729 18.2017 24.0651 18.7507 23.8555 19.2627C23.6458 19.7746 23.3385 20.24 22.9512 20.6318C22.5637 21.0238 22.103 21.3348 21.5967 21.5469C21.0904 21.759 20.548 21.8682 20 21.8682C18.8932 21.8682 17.8314 21.4234 17.0488 20.6318C16.2665 19.8403 15.8271 18.7667 15.8271 17.6475C15.8272 16.5282 16.2664 15.4546 17.0488 14.6631C17.8314 13.8715 18.8932 13.4268 20 13.4268Z" fill="black"/>
</svg>
